<mxfile host="app.diagrams.net" agent="Mozilla/5.0 (Windows NT 10.0; Win64; x64) AppleWebKit/537.36 (KHTML, like Gecko) Chrome/132.0.0.0 Safari/537.36" version="26.0.11">
  <diagram name="Pagina-1" id="ZbplAOY11SaT76CZya4V">
    <mxGraphModel dx="794" dy="493" grid="1" gridSize="10" guides="1" tooltips="1" connect="1" arrows="1" fold="1" page="1" pageScale="1" pageWidth="827" pageHeight="1169" math="0" shadow="0">
      <root>
        <mxCell id="0" />
        <mxCell id="1" parent="0" />
        <mxCell id="RBXvUobbAgcYBBDG3Vo--1" value="&lt;font style=&quot;font-size: 16px;&quot;&gt;Auto&lt;/font&gt;" style="text;html=1;align=center;verticalAlign=middle;whiteSpace=wrap;rounded=0;" vertex="1" parent="1">
          <mxGeometry x="340" y="50" width="110" height="30" as="geometry" />
        </mxCell>
        <mxCell id="RBXvUobbAgcYBBDG3Vo--2" value="&lt;font style=&quot;font-size: 16px;&quot;&gt;Parcheggio&lt;/font&gt;" style="text;html=1;align=center;verticalAlign=middle;whiteSpace=wrap;rounded=0;" vertex="1" parent="1">
          <mxGeometry x="80" y="50" width="110" height="30" as="geometry" />
        </mxCell>
        <mxCell id="RBXvUobbAgcYBBDG3Vo--3" value="&lt;font style=&quot;font-size: 16px;&quot;&gt;Proprietario&lt;/font&gt;" style="text;html=1;align=center;verticalAlign=middle;whiteSpace=wrap;rounded=0;" vertex="1" parent="1">
          <mxGeometry x="630" y="50" width="110" height="30" as="geometry" />
        </mxCell>
        <mxCell id="RBXvUobbAgcYBBDG3Vo--4" value="" style="endArrow=none;dashed=1;html=1;rounded=0;" edge="1" parent="1" source="RBXvUobbAgcYBBDG3Vo--16">
          <mxGeometry width="50" height="50" relative="1" as="geometry">
            <mxPoint x="134.5" y="626.6666870117188" as="sourcePoint" />
            <mxPoint x="134.5" y="80" as="targetPoint" />
          </mxGeometry>
        </mxCell>
        <mxCell id="RBXvUobbAgcYBBDG3Vo--5" value="" style="endArrow=none;dashed=1;html=1;rounded=0;" edge="1" parent="1" source="RBXvUobbAgcYBBDG3Vo--17">
          <mxGeometry width="50" height="50" relative="1" as="geometry">
            <mxPoint x="400" y="626.6666870117188" as="sourcePoint" />
            <mxPoint x="400" y="80" as="targetPoint" />
          </mxGeometry>
        </mxCell>
        <mxCell id="RBXvUobbAgcYBBDG3Vo--6" value="" style="endArrow=none;dashed=1;html=1;rounded=0;" edge="1" parent="1" source="RBXvUobbAgcYBBDG3Vo--26">
          <mxGeometry width="50" height="50" relative="1" as="geometry">
            <mxPoint x="684.5" y="636.6666870117188" as="sourcePoint" />
            <mxPoint x="684.5" y="90" as="targetPoint" />
          </mxGeometry>
        </mxCell>
        <mxCell id="RBXvUobbAgcYBBDG3Vo--8" value="Aggiungi Proprietario" style="text;html=1;align=center;verticalAlign=middle;whiteSpace=wrap;rounded=0;" vertex="1" parent="1">
          <mxGeometry x="520" y="70" width="60" height="30" as="geometry" />
        </mxCell>
        <mxCell id="RBXvUobbAgcYBBDG3Vo--9" value="" style="endArrow=classic;html=1;rounded=0;entryX=0.25;entryY=0;entryDx=0;entryDy=0;" edge="1" parent="1" target="RBXvUobbAgcYBBDG3Vo--17">
          <mxGeometry width="50" height="50" relative="1" as="geometry">
            <mxPoint x="680" y="100" as="sourcePoint" />
            <mxPoint x="420" y="100" as="targetPoint" />
          </mxGeometry>
        </mxCell>
        <mxCell id="RBXvUobbAgcYBBDG3Vo--10" value="Aggiungi Auto" style="text;html=1;align=center;verticalAlign=middle;whiteSpace=wrap;rounded=0;" vertex="1" parent="1">
          <mxGeometry x="235" y="130" width="60" height="30" as="geometry" />
        </mxCell>
        <mxCell id="RBXvUobbAgcYBBDG3Vo--13" value="" style="endArrow=classic;html=1;rounded=0;entryX=0;entryY=1;entryDx=0;entryDy=0;" edge="1" parent="1" target="RBXvUobbAgcYBBDG3Vo--15">
          <mxGeometry width="50" height="50" relative="1" as="geometry">
            <mxPoint x="140" y="235" as="sourcePoint" />
            <mxPoint x="400" y="220" as="targetPoint" />
          </mxGeometry>
        </mxCell>
        <mxCell id="RBXvUobbAgcYBBDG3Vo--14" value="Uscita Auto" style="text;html=1;align=center;verticalAlign=middle;whiteSpace=wrap;rounded=0;" vertex="1" parent="1">
          <mxGeometry x="235" y="200" width="60" height="30" as="geometry" />
        </mxCell>
        <mxCell id="RBXvUobbAgcYBBDG3Vo--19" value="" style="endArrow=none;dashed=1;html=1;rounded=0;" edge="1" parent="1" source="RBXvUobbAgcYBBDG3Vo--15" target="RBXvUobbAgcYBBDG3Vo--17">
          <mxGeometry width="50" height="50" relative="1" as="geometry">
            <mxPoint x="400" y="626.6666870117188" as="sourcePoint" />
            <mxPoint x="400" y="80" as="targetPoint" />
          </mxGeometry>
        </mxCell>
        <mxCell id="RBXvUobbAgcYBBDG3Vo--17" value="" style="rounded=1;whiteSpace=wrap;html=1;rotation=90;" vertex="1" parent="1">
          <mxGeometry x="384" y="100" width="30" height="20" as="geometry" />
        </mxCell>
        <mxCell id="RBXvUobbAgcYBBDG3Vo--21" value="" style="endArrow=none;dashed=1;html=1;rounded=0;" edge="1" parent="1" target="RBXvUobbAgcYBBDG3Vo--16">
          <mxGeometry width="50" height="50" relative="1" as="geometry">
            <mxPoint x="135" y="440" as="sourcePoint" />
            <mxPoint x="134.5" y="80" as="targetPoint" />
          </mxGeometry>
        </mxCell>
        <mxCell id="RBXvUobbAgcYBBDG3Vo--16" value="" style="rounded=1;whiteSpace=wrap;html=1;rotation=90;" vertex="1" parent="1">
          <mxGeometry x="120" y="160" width="30" height="20" as="geometry" />
        </mxCell>
        <mxCell id="RBXvUobbAgcYBBDG3Vo--22" value="" style="endArrow=classic;html=1;rounded=0;entryX=0;entryY=0;entryDx=0;entryDy=0;" edge="1" parent="1" target="RBXvUobbAgcYBBDG3Vo--16">
          <mxGeometry width="50" height="50" relative="1" as="geometry">
            <mxPoint x="400" y="160" as="sourcePoint" />
            <mxPoint x="450" y="110" as="targetPoint" />
          </mxGeometry>
        </mxCell>
        <mxCell id="RBXvUobbAgcYBBDG3Vo--23" value="" style="endArrow=none;dashed=1;html=1;rounded=0;" edge="1" parent="1" source="RBXvUobbAgcYBBDG3Vo--32" target="RBXvUobbAgcYBBDG3Vo--15">
          <mxGeometry width="50" height="50" relative="1" as="geometry">
            <mxPoint x="400" y="626.6666870117188" as="sourcePoint" />
            <mxPoint x="399" y="125" as="targetPoint" />
          </mxGeometry>
        </mxCell>
        <mxCell id="RBXvUobbAgcYBBDG3Vo--15" value="" style="rounded=1;whiteSpace=wrap;html=1;rotation=90;" vertex="1" parent="1">
          <mxGeometry x="384" y="240" width="30" height="20" as="geometry" />
        </mxCell>
        <mxCell id="RBXvUobbAgcYBBDG3Vo--25" value="" style="endArrow=classic;html=1;rounded=0;" edge="1" parent="1">
          <mxGeometry width="50" height="50" relative="1" as="geometry">
            <mxPoint x="410" y="260" as="sourcePoint" />
            <mxPoint x="670" y="260" as="targetPoint" />
          </mxGeometry>
        </mxCell>
        <mxCell id="RBXvUobbAgcYBBDG3Vo--29" value="" style="endArrow=none;dashed=1;html=1;rounded=0;" edge="1" parent="1" target="RBXvUobbAgcYBBDG3Vo--26">
          <mxGeometry width="50" height="50" relative="1" as="geometry">
            <mxPoint x="685" y="440" as="sourcePoint" />
            <mxPoint x="684.5" y="90" as="targetPoint" />
          </mxGeometry>
        </mxCell>
        <mxCell id="RBXvUobbAgcYBBDG3Vo--26" value="" style="rounded=1;whiteSpace=wrap;html=1;rotation=90;" vertex="1" parent="1">
          <mxGeometry x="670" y="260" width="30" height="20" as="geometry" />
        </mxCell>
        <mxCell id="RBXvUobbAgcYBBDG3Vo--30" value="Pagamento della tariffa" style="text;html=1;align=center;verticalAlign=middle;whiteSpace=wrap;rounded=0;" vertex="1" parent="1">
          <mxGeometry x="510" y="230" width="60" height="30" as="geometry" />
        </mxCell>
        <mxCell id="RBXvUobbAgcYBBDG3Vo--33" value="" style="endArrow=none;dashed=1;html=1;rounded=0;" edge="1" parent="1" target="RBXvUobbAgcYBBDG3Vo--32">
          <mxGeometry width="50" height="50" relative="1" as="geometry">
            <mxPoint x="400" y="440" as="sourcePoint" />
            <mxPoint x="399" y="265" as="targetPoint" />
          </mxGeometry>
        </mxCell>
        <mxCell id="RBXvUobbAgcYBBDG3Vo--32" value="" style="rounded=1;whiteSpace=wrap;html=1;rotation=90;" vertex="1" parent="1">
          <mxGeometry x="384" y="330" width="30" height="20" as="geometry" />
        </mxCell>
        <mxCell id="RBXvUobbAgcYBBDG3Vo--34" value="" style="endArrow=classic;html=1;rounded=0;entryX=0;entryY=1;entryDx=0;entryDy=0;" edge="1" parent="1" target="RBXvUobbAgcYBBDG3Vo--32">
          <mxGeometry width="50" height="50" relative="1" as="geometry">
            <mxPoint x="140" y="330" as="sourcePoint" />
            <mxPoint x="190" y="280" as="targetPoint" />
          </mxGeometry>
        </mxCell>
        <mxCell id="RBXvUobbAgcYBBDG3Vo--35" value="Conteggio numero macchine" style="text;html=1;align=center;verticalAlign=middle;whiteSpace=wrap;rounded=0;" vertex="1" parent="1">
          <mxGeometry x="210" y="300" width="100" height="30" as="geometry" />
        </mxCell>
        <mxCell id="RBXvUobbAgcYBBDG3Vo--36" value="" style="endArrow=classic;html=1;rounded=0;exitX=1;exitY=0.75;exitDx=0;exitDy=0;" edge="1" parent="1" source="RBXvUobbAgcYBBDG3Vo--32">
          <mxGeometry width="50" height="50" relative="1" as="geometry">
            <mxPoint x="200" y="400" as="sourcePoint" />
            <mxPoint x="140" y="355" as="targetPoint" />
          </mxGeometry>
        </mxCell>
        <mxCell id="RBXvUobbAgcYBBDG3Vo--37" value="Calcolo dei posti disponibili" style="text;html=1;align=center;verticalAlign=middle;whiteSpace=wrap;rounded=0;" vertex="1" parent="1">
          <mxGeometry x="220" y="360" width="100" height="30" as="geometry" />
        </mxCell>
      </root>
    </mxGraphModel>
  </diagram>
</mxfile>
